# Blender 4.1.1
# www.blender.org
mtllib letalo.mtl
o Cube
v 1.000000 -0.166779 1.685560
v 0.743235 1.093745 1.496515
v 1.122266 -0.184712 -0.599854
v 0.663015 1.093745 0.050155
v 1.000000 -0.050287 -2.173370
v 0.826122 0.504980 -2.355927
v 0.793125 0.687995 2.830197
v 1.000000 0.109507 2.918738
v 0.826122 0.687996 -1.000964
v 1.122266 -0.184712 -1.356927
v 0.866449 0.687995 2.280315
v 1.122266 -0.166779 2.211959
v 1.000000 0.305820 1.685560
v 1.109926 0.423348 -0.599854
v 1.000000 0.251642 -2.173370
v 0.834863 0.621297 2.909257
v 1.136417 0.423348 -1.347597
v 1.122266 0.305820 2.211959
v 1.000000 0.687966 1.705746
v 1.000000 0.688250 -0.490160
v 0.826206 0.646997 2.908070
v 0.944567 0.687995 2.211923
v 0.806555 0.477969 -2.336463
v 0.943355 0.278652 -2.192834
v 0.943355 0.299351 -2.164110
v 0.806555 0.498668 -2.307739
v 0.000000 1.093745 1.496515
v 0.000000 -0.184712 -0.294254
v 0.000000 1.093745 0.010045
v 0.000000 -0.184713 1.705746
v 0.000000 -0.050287 -2.173370
v 0.000000 0.504980 -2.355927
v 0.000000 0.687995 2.885108
v 0.000000 0.109507 2.918738
v 0.000000 -0.184712 -1.000964
v 0.000000 0.687996 -1.000964
v 0.000000 -0.184713 2.191774
v 0.000000 0.687995 2.211923
v 0.000000 0.251641 2.918738
v 0.000000 0.251642 -2.173370
v 0.000000 0.687995 2.830197
v 0.000000 0.687995 2.280315
v 0.000000 0.477969 -2.336463
v 0.000000 0.278652 -2.192834
v 0.000000 0.498668 -2.307739
v 0.000000 0.299351 -2.164110
v 1.000000 -0.184712 0.705746
v 0.663015 1.093745 0.713170
v 1.000000 0.251642 0.705746
v 1.000000 0.688108 0.705746
v 0.000000 1.093745 0.753280
v 0.000000 -0.184712 0.705746
v 1.000000 0.564965 0.418351
v 1.000000 0.564920 0.603245
v 1.000000 0.522178 0.603245
v 1.000000 0.522178 0.418351
v 1.036524 0.556187 0.424534
v 1.036524 0.556145 0.597062
v 1.036524 0.530958 0.597062
v 1.036524 0.530958 0.424534
v 1.122266 -0.184712 -0.957772
v 1.122266 -0.184712 -1.103099
v 1.000000 0.251641 2.918738
v 0.853004 0.687995 2.885108
v 0.427095 0.621297 2.909257
v 0.427094 0.646997 2.908070
v 0.672652 1.082147 0.697877
v 0.990363 0.699708 0.690877
v 0.990364 0.699844 -0.453118
v 0.672652 1.082147 0.056293
v 0.751412 1.081765 1.486376
v 0.990504 0.699713 1.682776
v 0.991636 0.700666 0.720991
v 0.672807 1.081085 0.728055
v 0.970599 0.684405 0.691332
v 0.652888 1.066845 0.698332
v 0.652887 1.066844 0.056748
v 0.970600 0.684542 -0.452663
v 0.970739 0.684410 1.683231
v 0.731648 1.066462 1.486831
v 0.653043 1.065782 0.728510
v 0.971872 0.685363 0.721446
v 0.000000 1.085202 -0.011064
v 0.642336 1.084691 0.026539
v 0.798298 0.697056 -0.978642
v 0.000000 0.696580 -0.978455
v 0.000000 1.085202 -0.011064
v 0.000000 0.696580 -0.978455
v 0.642132 1.064739 0.034374
v 0.798094 0.677104 -0.970806
v 0.000000 1.065250 -0.003228
v 0.000000 0.676628 -0.970619
v 0.471689 0.299351 -2.164110
v 0.558466 0.484071 -2.297221
v 0.503917 0.317367 -2.177093
v 0.574179 0.466932 -2.284870
v 0.794041 0.479868 -2.294192
v 0.905573 0.317367 -2.177093
v 0.574179 0.474513 -2.274351
v 0.503917 0.324947 -2.166573
v 0.905573 0.324947 -2.166573
v 0.794041 0.487449 -2.283673
v -1.000000 -0.166779 1.685560
v -0.743235 1.093745 1.496515
v -1.122266 -0.184712 -0.599854
v -0.663015 1.093745 0.050155
v -1.000000 -0.050287 -2.173370
v -0.826122 0.504980 -2.355927
v -0.793125 0.687995 2.830197
v -1.000000 0.109507 2.918738
v -0.826122 0.687996 -1.000964
v -1.122266 -0.184712 -1.356927
v -0.866449 0.687995 2.280315
v -1.122266 -0.166779 2.211959
v -1.000000 0.305820 1.685560
v -1.109926 0.423348 -0.599854
v -1.000000 0.251642 -2.173370
v -0.834863 0.621297 2.909257
v -1.136417 0.423348 -1.347597
v -1.122266 0.305820 2.211959
v -1.000000 0.687966 1.705746
v -1.000000 0.688250 -0.490160
v -0.826206 0.646997 2.908070
v -0.944567 0.687995 2.211923
v -0.806555 0.477969 -2.336463
v -0.943355 0.278652 -2.192834
v -0.943355 0.299351 -2.164110
v -0.806555 0.498668 -2.307739
v -1.000000 -0.184712 0.705746
v -0.663015 1.093745 0.713170
v -1.000000 0.251642 0.705746
v -1.000000 0.688108 0.705746
v -1.000000 0.564965 0.418351
v -1.000000 0.564920 0.603245
v -1.000000 0.522178 0.603245
v -1.000000 0.522178 0.418351
v -1.036524 0.556187 0.424534
v -1.036524 0.556145 0.597062
v -1.036524 0.530958 0.597062
v -1.036524 0.530958 0.424534
v -1.122266 -0.184712 -0.957772
v -1.122266 -0.184712 -1.103099
v -1.000000 0.251641 2.918738
v -0.853004 0.687995 2.885108
v -0.427095 0.621297 2.909257
v -0.427094 0.646997 2.908070
v -0.672652 1.082147 0.697877
v -0.990363 0.699708 0.690877
v -0.990364 0.699844 -0.453118
v -0.672652 1.082147 0.056293
v -0.751412 1.081765 1.486376
v -0.990504 0.699713 1.682776
v -0.991636 0.700666 0.720991
v -0.672807 1.081085 0.728055
v -0.970599 0.684405 0.691332
v -0.652888 1.066845 0.698332
v -0.652887 1.066844 0.056748
v -0.970600 0.684542 -0.452663
v -0.970739 0.684410 1.683231
v -0.731648 1.066462 1.486831
v -0.653043 1.065782 0.728510
v -0.971872 0.685363 0.721446
v -0.642336 1.084691 0.026539
v -0.798298 0.697056 -0.978642
v -0.642132 1.064739 0.034374
v -0.798094 0.677104 -0.970806
v -0.471689 0.299351 -2.164110
v -0.558466 0.484071 -2.297221
v -0.503917 0.317367 -2.177093
v -0.574179 0.466932 -2.284870
v -0.794041 0.479868 -2.294192
v -0.905573 0.317367 -2.177093
v -0.574179 0.474513 -2.274351
v -0.503917 0.324947 -2.166573
v -0.905573 0.324947 -2.166573
v -0.794041 0.487449 -2.283673
vn -0.0000 0.9910 -0.1339
vn -0.0000 1.0000 -0.0000
vn 0.9268 0.3265 0.1854
vn 0.9871 -0.0205 -0.1588
vn -0.0000 -0.0000 1.0000
vn -0.0000 -0.9270 0.3752
vn 0.0179 -0.9998 -0.0000
vn 0.9740 0.0119 -0.2262
vn 0.9741 -0.0000 -0.2262
vn 0.6010 0.7725 -0.2050
vn -0.0000 0.0461 0.9989
vn 0.5711 0.8135 -0.1099
vn 0.9854 -0.0000 0.1705
vn 0.4482 -0.5581 0.6983
vn 0.8201 0.5652 0.0898
vn 0.6638 0.7475 0.0235
vn -0.0000 -0.5846 -0.8113
vn -0.8737 -0.3947 0.2844
vn -0.0000 -0.8113 0.5846
vn -0.0000 0.8113 -0.5846
vn -0.0000 0.8698 0.4933
vn -0.0000 -1.0000 -0.0000
vn -0.0000 -0.9867 -0.1625
vn -0.0000 -0.0000 -1.0000
vn -0.0000 -0.9998 0.0183
vn 1.0000 -0.0000 -0.0000
vn 0.6101 -0.7898 -0.0625
vn 0.9310 0.3591 0.0656
vn 0.2337 0.9723 0.0002
vn 0.1669 -0.0000 0.9860
vn 0.2337 -0.9723 -0.0000
vn 0.1669 -0.0000 -0.9860
vn 0.4519 0.1925 0.8711
vn -0.0000 0.0256 0.9997
vn -0.0000 0.4887 0.8725
vn -0.0443 0.0768 0.9961
vn 0.7692 0.6390 0.0001
vn 0.7691 0.6391 0.0001
vn 0.7691 0.6391 -0.0000
vn 0.7692 0.6390 -0.0000
vn 0.8390 0.5430 0.0350
vn 0.7776 0.6288 0.0001
vn 0.7608 0.6397 -0.1095
vn 0.8342 0.5448 -0.0854
vn 0.7633 0.6412 -0.0797
vn 0.6122 -0.7907 -0.0000
vn -0.6122 0.7907 0.0001
vn 0.2315 -0.3263 -0.9165
vn 0.0227 0.0004 0.9997
vn -0.0226 -0.0005 -0.9997
vn 0.0227 0.9267 -0.3751
vn 0.0020 0.9331 -0.3595
vn -0.0000 0.9266 -0.3761
vn -0.0000 0.3655 0.9308
vn 0.0226 0.9277 -0.3727
vn 0.0541 -0.3650 -0.9294
vn -0.9896 -0.0436 -0.1367
vn 0.0723 -0.8092 0.5831
vn 0.9344 -0.2889 0.2082
vn 0.9956 -0.0000 0.0932
vn 0.9997 -0.0233 -0.0000
vn -0.8999 0.4185 0.1224
vn -0.9871 -0.0205 -0.1588
vn -0.0083 -0.9308 0.3653
vn -0.0179 -0.9998 -0.0000
vn -0.9740 0.0119 -0.2262
vn -0.9741 -0.0000 -0.2262
vn -0.6010 0.7725 -0.2050
vn -0.5711 0.8135 -0.1099
vn -0.9854 -0.0000 0.1705
vn -0.4482 -0.5581 0.6983
vn -0.8201 0.5652 0.0898
vn -0.8376 0.4658 -0.2854
vn 0.8737 -0.3947 0.2844
vn 0.0361 -0.9928 -0.1138
vn -1.0000 -0.0000 -0.0000
vn -0.6101 -0.7898 -0.0625
vn -0.9900 0.1029 0.0969
vn -0.9310 0.3591 0.0656
vn -0.2336 0.9723 0.0002
vn -0.1669 -0.0000 0.9860
vn -0.2337 -0.9723 -0.0000
vn -0.1669 -0.0000 -0.9860
vn -0.4519 0.1925 0.8711
vn -0.0000 0.4886 0.8725
vn 0.0492 0.0461 0.9977
vn -0.7692 0.6390 0.0001
vn -0.7691 0.6391 -0.0000
vn -0.8640 0.4924 -0.1054
vn -0.7776 0.6288 0.0001
vn -0.7690 0.6382 0.0370
vn -0.8342 0.5448 -0.0854
vn -0.7692 0.6390 -0.0000
vn -0.8473 0.5311 0.0015
vn -0.6122 -0.7907 -0.0000
vn 0.6122 0.7907 0.0001
vn -0.2315 -0.3263 -0.9165
vn -0.0227 0.0004 0.9997
vn 0.0226 -0.0005 -0.9997
vn -0.0227 0.9267 -0.3752
vn -0.0170 0.9337 -0.3578
vn 0.0006 0.9330 -0.3599
vn -0.0541 -0.3650 -0.9294
vn 0.9896 -0.0436 -0.1367
vn -0.0723 -0.8092 0.5831
vn -0.9344 -0.2889 0.2082
vn -0.9960 0.0202 0.0865
vn -0.9997 -0.0233 -0.0000
vn 0.8999 0.4185 0.1224
vn 0.9890 -0.0000 -0.1481
vn 0.0083 -0.9308 0.3653
vn 0.0160 -0.9999 -0.0037
vn 0.9023 0.4196 0.0988
vn 0.8720 0.4302 -0.2335
vn 0.8376 0.4658 -0.2854
vn -0.0361 -0.9928 -0.1138
vn 0.9900 0.1029 0.0969
vn 0.4147 0.2080 0.8859
vn -0.0492 0.0461 0.9977
vn 0.7692 0.6391 0.0001
vn 0.8640 0.4924 -0.1054
vn 0.8331 0.5530 0.0015
vn 0.7690 0.6382 0.0370
vn 0.7893 0.6084 -0.0824
vn 0.8473 0.5311 0.0015
vn 0.0227 0.9267 -0.3752
vn 0.0170 0.9337 -0.3578
vn -0.0006 0.9344 -0.3563
vn -0.0006 0.9330 -0.3599
vn 0.0541 -0.3655 -0.9292
vn 0.9960 0.0202 0.0865
vn 0.9992 0.0203 0.0354
vn -0.9268 0.3265 0.1854
vn -0.9890 -0.0000 -0.1481
vn -0.0160 -0.9999 -0.0037
vn -0.9023 0.4196 0.0988
vn -0.8720 0.4302 -0.2335
vn -0.6638 0.7475 0.0235
vn -0.2337 0.9723 0.0002
vn -0.4147 0.2080 0.8859
vn 0.0443 0.0768 0.9961
vn -0.7691 0.6391 0.0001
vn -0.7692 0.6391 0.0001
vn -0.8390 0.5430 0.0350
vn -0.8331 0.5530 0.0015
vn -0.7608 0.6397 -0.1095
vn -0.7893 0.6084 -0.0824
vn -0.7633 0.6412 -0.0797
vn -0.0227 0.9267 -0.3751
vn -0.0020 0.9331 -0.3595
vn 0.0006 0.9344 -0.3563
vn -0.0226 0.9277 -0.3727
vn -0.0541 -0.3655 -0.9292
vn -0.9956 -0.0000 0.0932
vn -0.9992 0.0203 0.0354
vt 0.375000 0.750000
vt 0.250003 0.750000
vt 0.250003 0.750000
vt 0.375000 0.625000
vt 0.250003 0.750000
vt 0.250003 0.625000
vt 0.500000 0.500000
vt 0.375000 0.500000
vt 0.625000 0.750000
vt 0.500000 0.750000
vt 0.625000 0.375003
vt 0.500000 0.375003
vt 0.749997 0.500000
vt 0.625000 0.500000
vt 0.435233 0.500000
vt 0.435191 0.750000
vt 0.445347 0.400702
vt 0.429653 0.472954
vt 0.429653 0.401113
vt 0.376722 0.746921
vt 0.433470 0.747674
vt 0.365648 0.500000
vt 0.250003 0.500000
vt 0.250003 0.500000
vt 0.486673 0.754900
vt 0.388327 0.755261
vt 0.375000 0.874997
vt 0.388327 0.874997
vt 0.388327 0.874997
vt 0.395530 0.792946
vt 0.486673 0.874997
vt 0.500000 0.874997
vt 0.365205 0.500000
vt 0.250003 0.500000
vt 0.486673 0.874997
vt 0.486673 0.814949
vt 0.749997 0.750000
vt 0.625000 0.625000
vt 0.749997 0.625000
vt 0.463514 0.647210
vt 0.471694 0.727790
vt 0.463500 0.727790
vt 0.376751 0.622715
vt 0.376898 0.502435
vt 0.500000 0.625000
vt 0.250003 0.500000
vt 0.435212 0.625000
vt 0.460395 0.732255
vt 0.474799 0.642745
vt 0.460410 0.642745
vt 0.474799 0.732255
vt 0.471694 0.647210
vt 0.000000 0.000000
vt 0.445347 0.473377
vt 0.375000 0.375003
vt 0.376722 0.627543
vt 0.433490 0.626834
vt 0.433351 0.502124
vt 0.433464 0.623002
vt 0.370600 0.750000
vt 0.254397 0.750000
vt 0.371221 0.750000
vt 0.397603 0.758738
vt 0.403986 0.791661
vt 0.477784 0.809719
vt 0.477783 0.758213
vt 0.250003 0.500000
vt 0.625000 0.874997
vt 0.253767 0.750000
s 0
usemtl Material
f 9/1/1 32/2/1 36/3/1
f 48/4/2 29/5/2 51/6/2
f 18/7/3 64/8/3 63/7/3
f 10/9/4 15/10/4 17/10/4
f 34/11/5 63/7/5 39/12/5
f 37/13/6 8/14/6 34/13/6
f 1/14/7 37/13/7 30/13/7
f 19/15/8 18/7/8 13/7/8
f 1/14/9 18/7/9 12/14/9
f 4/1/10 20/16/10 9/1/10
f 65/17/11 21/18/11 66/19/11
f 17/10/12 6/1/12 9/1/12
f 18/7/13 8/14/13 12/14/13
f 70/20/14 78/21/14 69/21/14
f 22/8/15 19/15/15 2/8/15
f 9/1/16 14/10/16 17/10/16
f 11/22/2 64/8/2 22/8/2
f 11/22/2 38/23/2 42/24/2
f 6/1/17 24/25/17 23/26/17
f 32/27/17 23/26/17 43/28/17
f 23/26/18 25/25/18 26/26/18
f 23/26/19 45/29/19 43/28/19
f 94/30/17 46/31/17 45/29/17
f 40/32/17 24/25/17 15/10/17
f 7/33/2 33/34/2 64/8/2
f 44/35/20 93/36/20 25/25/20
f 2/8/21 38/23/21 22/8/21
f 3/9/22 35/37/22 10/9/22
f 42/24/2 7/33/2 11/22/2
f 10/9/23 31/37/23 5/9/23
f 5/9/24 40/32/24 15/10/24
f 47/38/22 28/37/22 3/9/22
f 1/14/25 52/39/25 47/38/25
f 58/40/26 60/41/26 57/42/26
f 74/43/27 80/44/27 81/43/27
f 1/14/26 49/45/26 13/7/26
f 27/46/2 48/4/2 51/6/2
f 50/47/26 53/48/26 20/16/26
f 50/47/26 55/49/26 54/50/26
f 49/45/26 56/51/26 55/49/26
f 20/16/28 56/51/28 14/10/28
f 54/50/29 57/42/29 53/48/29
f 54/50/30 59/52/30 58/40/30
f 55/49/31 60/41/31 59/52/31
f 53/48/32 60/41/32 56/51/32
f 50/53/26 19/53/26 13/53/26
f 50/53/26 13/53/26 49/53/26
f 16/54/33 64/8/33 21/18/33
f 65/17/34 63/7/34 16/54/34
f 66/19/35 64/8/35 33/55/35
f 65/17/36 33/55/36 39/12/36
f 50/47/37 67/56/37 48/4/37
f 50/47/38 69/21/38 68/57/38
f 4/1/39 69/21/39 20/16/39
f 4/1/40 67/56/40 70/20/40
f 2/8/41 72/58/41 71/44/41
f 50/47/42 72/58/42 19/15/42
f 50/47/43 74/43/43 73/59/43
f 2/8/44 74/43/44 48/4/44
f 75/57/40 77/20/40 76/56/40
f 80/44/45 82/59/45 81/43/45
f 67/56/46 77/20/46 70/20/46
f 72/58/47 82/59/47 79/58/47
f 72/58/48 80/44/48 71/44/48
f 68/57/47 78/21/47 75/57/47
f 74/43/49 82/59/49 73/59/49
f 67/56/50 75/57/50 76/56/50
f 29/5/51 84/60/51 83/61/51
f 4/1/52 85/62/52 84/60/52
f 36/3/53 85/62/53 9/1/53
f 88/53/54 90/53/54 85/53/54
f 89/60/55 92/62/55 91/60/55
f 84/53/56 91/53/56 87/53/56
f 84/60/57 90/62/57 89/60/57
f 97/63/58 99/64/58 96/64/58
f 94/30/17 95/65/17 93/36/17
f 94/30/17 97/63/17 96/64/17
f 26/26/17 98/66/17 97/63/17
f 93/36/17 98/66/17 25/25/17
f 100/65/17 102/63/17 101/66/17
f 95/65/59 99/64/59 100/65/59
f 98/66/18 102/63/18 97/63/18
f 95/65/20 101/66/20 98/66/20
f 3/9/60 49/45/60 47/38/60
f 17/10/61 3/9/61 10/9/61
f 32/2/1 111/1/1 36/3/1
f 29/5/2 130/4/2 51/6/2
f 120/7/62 144/8/62 124/8/62
f 117/10/63 112/9/63 119/10/63
f 143/7/5 34/11/5 39/12/5
f 37/13/64 110/14/64 114/14/64
f 37/13/65 103/14/65 30/13/65
f 120/7/66 121/15/66 115/7/66
f 120/7/67 103/14/67 114/14/67
f 106/1/68 111/1/68 122/16/68
f 123/18/11 145/17/11 146/19/11
f 108/1/69 119/10/69 111/1/69
f 110/14/70 120/7/70 114/14/70
f 158/21/71 150/20/71 149/21/71
f 124/8/72 104/8/72 121/15/72
f 111/1/73 116/10/73 122/16/73
f 113/22/2 144/8/2 109/33/2
f 38/23/2 113/22/2 42/24/2
f 108/1/17 126/25/17 117/10/17
f 32/27/17 125/26/17 108/1/17
f 125/26/74 127/25/74 126/25/74
f 45/29/19 125/26/19 43/28/19
f 45/29/17 167/36/17 168/30/17
f 126/25/17 40/32/17 117/10/17
f 109/33/2 33/34/2 41/67/2
f 127/25/20 167/36/20 44/35/20
f 104/8/21 38/23/21 27/46/21
f 105/9/22 35/37/22 28/37/22
f 109/33/2 42/24/2 113/22/2
f 112/9/75 31/37/75 35/37/75
f 40/32/24 107/9/24 117/10/24
f 129/38/22 28/37/22 52/39/22
f 103/14/65 52/39/65 30/13/65
f 140/41/76 138/40/76 137/42/76
f 154/43/77 160/44/77 151/44/77
f 131/45/76 103/14/76 115/7/76
f 27/46/2 130/4/2 104/8/2
f 133/48/76 132/47/76 122/16/76
f 132/47/76 135/49/76 131/45/76
f 131/45/78 136/51/78 116/10/78
f 136/51/79 122/16/79 116/10/79
f 137/42/80 134/50/80 133/48/80
f 134/50/81 139/52/81 135/49/81
f 135/49/82 140/41/82 136/51/82
f 140/41/83 133/48/83 136/51/83
f 132/53/76 115/53/76 121/53/76
f 132/53/76 131/53/76 115/53/76
f 144/8/84 118/54/84 123/18/84
f 143/7/34 145/17/34 118/54/34
f 146/19/85 144/8/85 123/18/85
f 145/17/86 33/55/86 146/19/86
f 147/56/87 132/47/87 130/4/87
f 132/47/87 149/21/87 122/16/87
f 149/21/88 106/1/88 122/16/88
f 106/1/88 147/56/88 130/4/88
f 104/8/89 152/58/89 121/15/89
f 152/58/90 132/47/90 121/15/90
f 132/47/91 154/43/91 130/4/91
f 154/43/92 104/8/92 130/4/92
f 157/20/93 155/57/93 156/56/93
f 160/44/94 162/59/94 159/58/94
f 157/20/95 147/56/95 150/20/95
f 152/58/96 162/59/96 153/59/96
f 160/44/97 152/58/97 151/44/97
f 148/57/96 158/21/96 149/21/96
f 162/59/98 154/43/98 153/59/98
f 147/56/99 155/57/99 148/57/99
f 29/5/100 163/60/100 106/1/100
f 106/1/101 164/62/101 111/1/101
f 164/62/53 36/3/53 111/1/53
f 166/53/54 88/53/54 164/53/54
f 165/60/102 92/62/102 166/62/102
f 91/53/103 163/53/103 87/53/103
f 163/60/104 166/62/104 164/62/104
f 173/64/105 171/63/105 170/64/105
f 169/65/17 168/30/17 167/36/17
f 168/30/17 171/63/17 128/26/17
f 128/26/17 172/66/17 127/25/17
f 172/66/17 167/36/17 127/25/17
f 174/65/17 176/63/17 173/64/17
f 174/65/106 170/64/106 169/65/106
f 176/63/74 172/66/74 171/63/74
f 175/66/20 169/65/20 172/66/20
f 105/9/107 131/45/107 116/10/107
f 105/9/108 119/10/108 112/9/108
f 9/1/1 6/1/1 32/2/1
f 48/4/2 4/1/2 29/5/2
f 18/7/109 22/8/109 64/8/109
f 10/9/110 5/9/110 15/10/110
f 34/11/5 8/14/5 63/7/5
f 37/13/111 12/14/111 8/14/111
f 1/14/112 12/14/112 37/13/112
f 19/15/113 22/8/113 18/7/113
f 1/14/9 13/7/9 18/7/9
f 65/17/11 16/54/11 21/18/11
f 17/10/114 15/10/114 6/1/114
f 18/7/13 63/7/13 8/14/13
f 70/20/14 77/20/14 78/21/14
f 9/1/115 20/16/115 14/10/115
f 11/22/2 7/33/2 64/8/2
f 11/22/2 22/8/2 38/23/2
f 6/1/17 15/10/17 24/25/17
f 32/27/17 6/1/17 23/26/17
f 23/26/18 24/25/18 25/25/18
f 23/26/19 26/26/19 45/29/19
f 45/29/17 26/26/17 94/30/17
f 94/30/17 93/36/17 46/31/17
f 40/32/17 44/35/17 24/25/17
f 7/33/2 41/67/2 33/34/2
f 25/25/20 24/25/20 44/35/20
f 44/35/20 46/31/20 93/36/20
f 2/8/21 27/46/21 38/23/21
f 3/9/22 28/37/22 35/37/22
f 42/24/2 41/67/2 7/33/2
f 10/9/116 35/37/116 31/37/116
f 5/9/24 31/68/24 40/32/24
f 47/38/22 52/39/22 28/37/22
f 1/14/7 30/13/7 52/39/7
f 58/40/26 59/52/26 60/41/26
f 74/43/27 71/44/27 80/44/27
f 1/14/26 47/38/26 49/45/26
f 27/46/2 2/8/2 48/4/2
f 50/47/26 54/50/26 53/48/26
f 50/47/26 49/45/26 55/49/26
f 49/45/117 14/10/117 56/51/117
f 20/16/26 53/48/26 56/51/26
f 54/50/29 58/40/29 57/42/29
f 54/50/30 55/49/30 59/52/30
f 55/49/31 56/51/31 60/41/31
f 53/48/32 57/42/32 60/41/32
f 16/54/118 63/7/118 64/8/118
f 65/17/34 39/12/34 63/7/34
f 66/19/85 21/18/85 64/8/85
f 65/17/119 66/19/119 33/55/119
f 50/47/40 68/57/40 67/56/40
f 50/47/37 20/16/37 69/21/37
f 4/1/120 70/20/120 69/21/120
f 4/1/39 48/4/39 67/56/39
f 2/8/121 19/15/121 72/58/121
f 50/47/122 73/59/122 72/58/122
f 50/47/123 48/4/123 74/43/123
f 2/8/124 71/44/124 74/43/124
f 75/57/38 78/21/38 77/20/38
f 80/44/125 79/58/125 82/59/125
f 67/56/46 76/56/46 77/20/46
f 72/58/47 73/59/47 82/59/47
f 72/58/48 79/58/48 80/44/48
f 68/57/47 69/21/47 78/21/47
f 74/43/49 81/43/49 82/59/49
f 67/56/50 68/57/50 75/57/50
f 29/5/126 4/1/126 84/60/126
f 4/1/127 9/1/127 85/62/127
f 36/3/128 86/69/128 85/62/128
f 88/53/54 92/53/54 90/53/54
f 89/60/129 90/62/129 92/62/129
f 84/53/130 89/53/130 91/53/130
f 84/60/57 85/62/57 90/62/57
f 97/63/58 102/63/58 99/64/58
f 94/30/17 96/64/17 95/65/17
f 94/30/17 26/26/17 97/63/17
f 26/26/17 25/25/17 98/66/17
f 93/36/17 95/65/17 98/66/17
f 100/65/17 99/64/17 102/63/17
f 95/65/59 96/64/59 99/64/59
f 98/66/18 101/66/18 102/63/18
f 95/65/20 100/65/20 101/66/20
f 3/9/131 14/10/131 49/45/131
f 17/10/132 14/10/132 3/9/132
f 32/2/1 108/1/1 111/1/1
f 29/5/2 106/1/2 130/4/2
f 120/7/133 143/7/133 144/8/133
f 117/10/134 107/9/134 112/9/134
f 143/7/5 110/14/5 34/11/5
f 37/13/6 34/13/6 110/14/6
f 37/13/135 114/14/135 103/14/135
f 120/7/136 124/8/136 121/15/136
f 120/7/67 115/7/67 103/14/67
f 123/18/11 118/54/11 145/17/11
f 108/1/137 117/10/137 119/10/137
f 110/14/70 143/7/70 120/7/70
f 158/21/71 157/20/71 150/20/71
f 111/1/138 119/10/138 116/10/138
f 113/22/2 124/8/2 144/8/2
f 38/23/2 124/8/2 113/22/2
f 108/1/17 125/26/17 126/25/17
f 32/27/17 43/28/17 125/26/17
f 125/26/74 128/26/74 127/25/74
f 45/29/19 128/26/19 125/26/19
f 168/30/17 128/26/17 45/29/17
f 45/29/17 46/31/17 167/36/17
f 126/25/17 44/35/17 40/32/17
f 109/33/2 144/8/2 33/34/2
f 44/35/20 126/25/20 127/25/20
f 167/36/20 46/31/20 44/35/20
f 104/8/21 124/8/21 38/23/21
f 105/9/22 112/9/22 35/37/22
f 109/33/2 41/67/2 42/24/2
f 112/9/23 107/9/23 31/37/23
f 40/32/24 31/68/24 107/9/24
f 129/38/22 105/9/22 28/37/22
f 103/14/25 129/38/25 52/39/25
f 140/41/76 139/52/76 138/40/76
f 154/43/77 161/43/77 160/44/77
f 131/45/76 129/38/76 103/14/76
f 27/46/2 51/6/2 130/4/2
f 133/48/76 134/50/76 132/47/76
f 132/47/76 134/50/76 135/49/76
f 131/45/76 135/49/76 136/51/76
f 136/51/76 133/48/76 122/16/76
f 137/42/139 138/40/139 134/50/139
f 134/50/81 138/40/81 139/52/81
f 135/49/82 139/52/82 140/41/82
f 140/41/83 137/42/83 133/48/83
f 144/8/140 143/7/140 118/54/140
f 143/7/34 39/12/34 145/17/34
f 146/19/35 33/55/35 144/8/35
f 145/17/141 39/12/141 33/55/141
f 147/56/93 148/57/93 132/47/93
f 132/47/142 148/57/142 149/21/142
f 149/21/143 150/20/143 106/1/143
f 106/1/93 150/20/93 147/56/93
f 104/8/144 151/44/144 152/58/144
f 152/58/145 153/59/145 132/47/145
f 132/47/146 153/59/146 154/43/146
f 154/43/147 151/44/147 104/8/147
f 157/20/142 158/21/142 155/57/142
f 160/44/148 161/43/148 162/59/148
f 157/20/95 156/56/95 147/56/95
f 152/58/96 159/58/96 162/59/96
f 160/44/97 159/58/97 152/58/97
f 148/57/96 155/57/96 158/21/96
f 162/59/98 161/43/98 154/43/98
f 147/56/99 156/56/99 155/57/99
f 29/5/149 83/61/149 163/60/149
f 106/1/150 163/60/150 164/62/150
f 164/62/151 86/69/151 36/3/151
f 166/53/54 92/53/54 88/53/54
f 165/60/152 91/60/152 92/62/152
f 91/53/153 165/53/153 163/53/153
f 163/60/104 165/60/104 166/62/104
f 173/64/105 176/63/105 171/63/105
f 169/65/17 170/64/17 168/30/17
f 168/30/17 170/64/17 171/63/17
f 128/26/17 171/63/17 172/66/17
f 172/66/17 169/65/17 167/36/17
f 174/65/17 175/66/17 176/63/17
f 174/65/106 173/64/106 170/64/106
f 176/63/74 175/66/74 172/66/74
f 175/66/20 174/65/20 169/65/20
f 105/9/154 129/38/154 131/45/154
f 105/9/155 116/10/155 119/10/155
l 62 61
l 3 62
l 142 141
l 105 142
