# Blender 4.1.1
# www.blender.org
o Cube
v 1.000000 -0.166779 1.685560
v 0.743235 1.093745 1.496515
v 1.122266 -0.184712 -0.599854
v 0.663015 1.093745 0.050155
v 1.000000 -0.050287 -2.173370
v 0.826122 0.504980 -2.355927
v 0.793125 0.687995 2.830197
v 1.000000 0.109507 2.918738
v 0.826122 0.687996 -1.000964
v 1.122266 -0.184712 -1.356927
v 0.866449 0.687995 2.280315
v 1.122266 -0.166779 2.211959
v 1.000000 0.305820 1.685560
v 1.109926 0.423348 -0.599854
v 1.000000 0.251642 -2.173370
v 0.834863 0.621297 2.909257
v 1.136417 0.423348 -1.347597
v 1.122266 0.305820 2.211959
v 1.000000 0.687966 1.705746
v 1.000000 0.688250 -0.490160
v 0.826206 0.646997 2.908070
v 0.944567 0.687995 2.211923
v 0.806555 0.477969 -2.336463
v 0.943355 0.278652 -2.192834
v 0.943355 0.299351 -2.164110
v 0.806555 0.498668 -2.307739
v 0.000000 1.093745 1.496515
v 0.000000 -0.184712 -0.294254
v 0.000000 1.093745 0.010045
v 0.000000 -0.184713 1.705746
v 0.000000 -0.050287 -2.173370
v 0.000000 0.504980 -2.355927
v 0.000000 0.687995 2.885108
v 0.000000 0.109507 2.918738
v 0.000000 -0.184712 -1.000964
v 0.000000 0.687996 -1.000964
v 0.000000 -0.184713 2.191774
v 0.000000 0.687995 2.211923
v 0.000000 0.251641 2.918738
v 0.000000 0.251642 -2.173370
v 0.000000 0.687995 2.830197
v 0.000000 0.687995 2.280315
v 0.000000 0.477969 -2.336463
v 0.000000 0.278652 -2.192834
v 0.000000 0.498668 -2.307739
v 0.000000 0.299351 -2.164110
v 1.000000 -0.184712 0.705746
v 0.663015 1.093745 0.713170
v 1.000000 0.251642 0.705746
v 1.000000 0.688108 0.705746
v 0.000000 1.093745 0.753280
v 0.000000 -0.184712 0.705746
v 1.000000 0.564965 0.418351
v 1.000000 0.564920 0.603245
v 1.000000 0.522178 0.603245
v 1.000000 0.522178 0.418351
v 1.036524 0.556187 0.424534
v 1.036524 0.556145 0.597062
v 1.036524 0.530958 0.597062
v 1.036524 0.530958 0.424534
v 1.122266 -0.184712 -0.957772
v 1.122266 -0.184712 -1.103099
v 1.000000 0.251641 2.918738
v 0.853004 0.687995 2.885108
v 0.427095 0.621297 2.909257
v 0.427094 0.646997 2.908070
v 0.672652 1.082147 0.697877
v 0.990363 0.699708 0.690877
v 0.990364 0.699844 -0.453118
v 0.672652 1.082147 0.056293
v 0.751412 1.081765 1.486376
v 0.990504 0.699713 1.682776
v 0.991636 0.700666 0.720991
v 0.672807 1.081085 0.728055
v 0.970599 0.684405 0.691332
v 0.652888 1.066845 0.698332
v 0.652887 1.066844 0.056748
v 0.970600 0.684542 -0.452663
v 0.970739 0.684410 1.683231
v 0.731648 1.066462 1.486831
v 0.653043 1.065782 0.728510
v 0.971872 0.685363 0.721446
v 0.000000 1.085202 -0.011064
v 0.642336 1.084691 0.026539
v 0.798298 0.697056 -0.978642
v 0.000000 0.696580 -0.978455
v 0.000000 1.085202 -0.011064
v 0.000000 0.696580 -0.978455
v 0.642132 1.064739 0.034374
v 0.798094 0.677104 -0.970806
v 0.000000 1.065250 -0.003228
v 0.000000 0.676628 -0.970619
v 0.471689 0.299351 -2.164110
v 0.558466 0.484071 -2.297221
v 0.503917 0.317367 -2.177093
v 0.574179 0.466932 -2.284870
v 0.794041 0.479868 -2.294192
v 0.905573 0.317367 -2.177093
v 0.574179 0.474513 -2.274351
v 0.503917 0.324947 -2.166573
v 0.905573 0.324947 -2.166573
v 0.794041 0.487449 -2.283673
v -1.000000 -0.166779 1.685560
v -0.743235 1.093745 1.496515
v -1.122266 -0.184712 -0.599854
v -0.663015 1.093745 0.050155
v -1.000000 -0.050287 -2.173370
v -0.826122 0.504980 -2.355927
v -0.793125 0.687995 2.830197
v -1.000000 0.109507 2.918738
v -0.826122 0.687996 -1.000964
v -1.122266 -0.184712 -1.356927
v -0.866449 0.687995 2.280315
v -1.122266 -0.166779 2.211959
v -1.000000 0.305820 1.685560
v -1.109926 0.423348 -0.599854
v -1.000000 0.251642 -2.173370
v -0.834863 0.621297 2.909257
v -1.136417 0.423348 -1.347597
v -1.122266 0.305820 2.211959
v -1.000000 0.687966 1.705746
v -1.000000 0.688250 -0.490160
v -0.826206 0.646997 2.908070
v -0.944567 0.687995 2.211923
v -0.806555 0.477969 -2.336463
v -0.943355 0.278652 -2.192834
v -0.943355 0.299351 -2.164110
v -0.806555 0.498668 -2.307739
v -1.000000 -0.184712 0.705746
v -0.663015 1.093745 0.713170
v -1.000000 0.251642 0.705746
v -1.000000 0.688108 0.705746
v -1.000000 0.564965 0.418351
v -1.000000 0.564920 0.603245
v -1.000000 0.522178 0.603245
v -1.000000 0.522178 0.418351
v -1.036524 0.556187 0.424534
v -1.036524 0.556145 0.597062
v -1.036524 0.530958 0.597062
v -1.036524 0.530958 0.424534
v -1.122266 -0.184712 -0.957772
v -1.122266 -0.184712 -1.103099
v -1.000000 0.251641 2.918738
v -0.853004 0.687995 2.885108
v -0.427095 0.621297 2.909257
v -0.427094 0.646997 2.908070
v -0.672652 1.082147 0.697877
v -0.990363 0.699708 0.690877
v -0.990364 0.699844 -0.453118
v -0.672652 1.082147 0.056293
v -0.751412 1.081765 1.486376
v -0.990504 0.699713 1.682776
v -0.991636 0.700666 0.720991
v -0.672807 1.081085 0.728055
v -0.970599 0.684405 0.691332
v -0.652888 1.066845 0.698332
v -0.652887 1.066844 0.056748
v -0.970600 0.684542 -0.452663
v -0.970739 0.684410 1.683231
v -0.731648 1.066462 1.486831
v -0.653043 1.065782 0.728510
v -0.971872 0.685363 0.721446
v -0.642336 1.084691 0.026539
v -0.798298 0.697056 -0.978642
v -0.642132 1.064739 0.034374
v -0.798094 0.677104 -0.970806
v -0.471689 0.299351 -2.164110
v -0.558466 0.484071 -2.297221
v -0.503917 0.317367 -2.177093
v -0.574179 0.466932 -2.284870
v -0.794041 0.479868 -2.294192
v -0.905573 0.317367 -2.177093
v -0.574179 0.474513 -2.274351
v -0.503917 0.324947 -2.166573
v -0.905573 0.324947 -2.166573
v -0.794041 0.487449 -2.283673
vn -0.0000 0.9910 -0.1339
vn -0.0000 1.0000 -0.0000
vn 0.9268 0.3265 0.1854
vn 0.9871 -0.0205 -0.1588
vn -0.0000 -0.0000 1.0000
vn -0.0000 -0.9270 0.3752
vn 0.0179 -0.9998 -0.0000
vn 0.9740 0.0119 -0.2262
vn 0.9741 -0.0000 -0.2262
vn 0.6010 0.7725 -0.2050
vn -0.0000 0.0461 0.9989
vn 0.5711 0.8135 -0.1099
vn 0.9854 -0.0000 0.1705
vn 0.4482 -0.5581 0.6983
vn 0.8201 0.5652 0.0898
vn 0.6638 0.7475 0.0235
vn -0.0000 -0.5846 -0.8113
vn -0.8737 -0.3947 0.2844
vn -0.0000 -0.8113 0.5846
vn -0.0000 0.8113 -0.5846
vn -0.0000 0.8698 0.4933
vn -0.0000 -1.0000 -0.0000
vn -0.0000 -0.9867 -0.1625
vn -0.0000 -0.0000 -1.0000
vn -0.0000 -0.9998 0.0183
vn 1.0000 -0.0000 -0.0000
vn 0.6101 -0.7898 -0.0625
vn 0.9310 0.3591 0.0656
vn 0.2337 0.9723 0.0002
vn 0.1669 -0.0000 0.9860
vn 0.2337 -0.9723 -0.0000
vn 0.1669 -0.0000 -0.9860
vn 0.4519 0.1925 0.8711
vn -0.0000 0.0256 0.9997
vn -0.0000 0.4887 0.8725
vn -0.0443 0.0768 0.9961
vn 0.7692 0.6390 0.0001
vn 0.7691 0.6391 0.0001
vn 0.7691 0.6391 -0.0000
vn 0.7692 0.6390 -0.0000
vn 0.8390 0.5430 0.0350
vn 0.7776 0.6288 0.0001
vn 0.7608 0.6397 -0.1095
vn 0.8342 0.5448 -0.0854
vn 0.7633 0.6412 -0.0797
vn 0.6122 -0.7907 -0.0000
vn -0.6122 0.7907 0.0001
vn 0.2315 -0.3263 -0.9165
vn 0.0227 0.0004 0.9997
vn -0.0226 -0.0005 -0.9997
vn 0.0227 0.9267 -0.3751
vn 0.0020 0.9331 -0.3595
vn -0.0000 0.9266 -0.3761
vn -0.0000 0.3655 0.9308
vn 0.0226 0.9277 -0.3727
vn 0.0541 -0.3650 -0.9294
vn -0.9896 -0.0436 -0.1367
vn 0.0723 -0.8092 0.5831
vn 0.9344 -0.2889 0.2082
vn 0.9956 -0.0000 0.0932
vn 0.9997 -0.0233 -0.0000
vn -0.8999 0.4185 0.1224
vn -0.9871 -0.0205 -0.1588
vn -0.0083 -0.9308 0.3653
vn -0.0179 -0.9998 -0.0000
vn -0.9740 0.0119 -0.2262
vn -0.9741 -0.0000 -0.2262
vn -0.6010 0.7725 -0.2050
vn -0.5711 0.8135 -0.1099
vn -0.9854 -0.0000 0.1705
vn -0.4482 -0.5581 0.6983
vn -0.8201 0.5652 0.0898
vn -0.8376 0.4658 -0.2854
vn 0.8737 -0.3947 0.2844
vn 0.0361 -0.9928 -0.1138
vn -1.0000 -0.0000 -0.0000
vn -0.6101 -0.7898 -0.0625
vn -0.9900 0.1029 0.0969
vn -0.9310 0.3591 0.0656
vn -0.2336 0.9723 0.0002
vn -0.1669 -0.0000 0.9860
vn -0.2337 -0.9723 -0.0000
vn -0.1669 -0.0000 -0.9860
vn -0.4519 0.1925 0.8711
vn -0.0000 0.4886 0.8725
vn 0.0492 0.0461 0.9977
vn -0.7692 0.6390 0.0001
vn -0.7691 0.6391 -0.0000
vn -0.8640 0.4924 -0.1054
vn -0.7776 0.6288 0.0001
vn -0.7690 0.6382 0.0370
vn -0.8342 0.5448 -0.0854
vn -0.7692 0.6390 -0.0000
vn -0.8473 0.5311 0.0015
vn -0.6122 -0.7907 -0.0000
vn 0.6122 0.7907 0.0001
vn -0.2315 -0.3263 -0.9165
vn -0.0227 0.0004 0.9997
vn 0.0226 -0.0005 -0.9997
vn -0.0227 0.9267 -0.3752
vn -0.0170 0.9337 -0.3578
vn 0.0006 0.9330 -0.3599
vn -0.0541 -0.3650 -0.9294
vn 0.9896 -0.0436 -0.1367
vn -0.0723 -0.8092 0.5831
vn -0.9344 -0.2889 0.2082
vn -0.9960 0.0202 0.0865
vn -0.9997 -0.0233 -0.0000
vn 0.8999 0.4185 0.1224
vn 0.9890 -0.0000 -0.1481
vn 0.0083 -0.9308 0.3653
vn 0.0160 -0.9999 -0.0037
vn 0.9023 0.4196 0.0988
vn 0.8720 0.4302 -0.2335
vn 0.8376 0.4658 -0.2854
vn -0.0361 -0.9928 -0.1138
vn 0.9900 0.1029 0.0969
vn 0.4147 0.2080 0.8859
vn -0.0492 0.0461 0.9977
vn 0.7692 0.6391 0.0001
vn 0.8640 0.4924 -0.1054
vn 0.8331 0.5530 0.0015
vn 0.7690 0.6382 0.0370
vn 0.7893 0.6084 -0.0824
vn 0.8473 0.5311 0.0015
vn 0.0227 0.9267 -0.3752
vn 0.0170 0.9337 -0.3578
vn -0.0006 0.9344 -0.3563
vn -0.0006 0.9330 -0.3599
vn 0.0541 -0.3655 -0.9292
vn 0.9960 0.0202 0.0865
vn 0.9992 0.0203 0.0354
vn -0.9268 0.3265 0.1854
vn -0.9890 -0.0000 -0.1481
vn -0.0160 -0.9999 -0.0037
vn -0.9023 0.4196 0.0988
vn -0.8720 0.4302 -0.2335
vn -0.6638 0.7475 0.0235
vn -0.2337 0.9723 0.0002
vn -0.4147 0.2080 0.8859
vn 0.0443 0.0768 0.9961
vn -0.7691 0.6391 0.0001
vn -0.7692 0.6391 0.0001
vn -0.8390 0.5430 0.0350
vn -0.8331 0.5530 0.0015
vn -0.7608 0.6397 -0.1095
vn -0.7893 0.6084 -0.0824
vn -0.7633 0.6412 -0.0797
vn -0.0227 0.9267 -0.3751
vn -0.0020 0.9331 -0.3595
vn 0.0006 0.9344 -0.3563
vn -0.0226 0.9277 -0.3727
vn -0.0541 -0.3655 -0.9292
vn -0.9956 -0.0000 0.0932
vn -0.9992 0.0203 0.0354
vt 0.617956 0.735192
vt 0.460587 0.993857
vt 0.461214 0.734653
vt 0.587093 0.404269
vt 0.460587 0.536761
vt 0.461340 0.396254
vt 0.158174 0.134489
vt 0.082879 0.005449
vt 0.167566 0.000000
vt 0.246704 0.812141
vt 0.161419 0.966213
vt 0.131832 0.809843
vt 0.761079 0.388709
vt 0.734363 0.577859
vt 0.734363 0.388471
vt 0.460587 0.139856
vt 0.268993 0.000202
vt 0.458654 -0.000000
vt 0.270789 0.235947
vt 0.460571 0.232037
vt 0.083523 0.229748
vt 0.155823 0.233941
vt 0.245267 0.234389
vt 0.247617 0.134937
vt 0.586422 0.529611
vt 0.651463 0.638734
vt 0.664633 0.468848
vt 0.659771 0.544408
vt 0.659771 0.468819
vt 0.110813 1.000000
vt 0.077811 0.742726
vt 0.194466 0.000135
vt 0.775248 0.464978
vt 0.779872 0.552987
vt 0.775248 0.553890
vt 0.083351 0.133507
vt 0.002871 0.268159
vt 0.132363 0.667868
vt 0.628931 0.114899
vt 0.626993 0.000556
vt 0.643683 0.127880
vt 0.464470 0.127264
vt 0.464538 0.114335
vt 0.651463 0.231967
vt 0.698372 0.207651
vt 0.657061 0.235410
vt 0.651463 0.388142
vt 0.657061 0.387885
vt 0.786584 0.464134
vt 0.779872 0.516571
vt 0.779872 0.464076
vt 0.800535 0.388273
vt 0.806122 0.541114
vt 0.800534 0.541245
vt 0.763717 0.271206
vt 0.802002 0.375022
vt 0.760691 0.376920
vt 0.703970 0.385731
vt 0.703970 0.196685
vt 0.615576 0.010898
vt 0.465151 0.000000
vt 0.794760 0.388217
vt 0.800535 0.477635
vt 0.800535 0.567127
vt 0.603108 0.256232
vt 0.247643 0.669552
vt 0.460480 0.745400
vt 0.247617 0.813140
vt 0.459547 0.966859
vt 0.269886 0.967062
vt 0.760691 0.197398
vt 0.270876 0.421903
vt 0.460504 0.611364
vt 0.460537 0.421700
vt 0.733075 0.793339
vt 0.728308 0.760607
vt 0.733083 0.760601
vt 0.805957 0.370211
vt 0.809786 0.226037
vt 0.809786 0.370620
vt 0.164894 0.419909
vt 0.462093 0.255747
vt 0.082289 0.419495
vt 0.105248 0.474144
vt 0.080819 0.646415
vt 0.113569 0.439102
vt 0.105480 0.439061
vt 0.113346 0.474185
vt 0.786584 0.464076
vt 0.793550 0.497993
vt 0.786584 0.499029
vt 0.768072 0.558223
vt 0.761080 0.564507
vt 0.761080 0.559773
vt 0.786858 0.516629
vt 0.779872 0.550474
vt 0.779872 0.517751
vt 0.760691 0.380104
vt 0.767700 0.386571
vt 0.760691 0.388142
vt 0.664633 0.546077
vt 0.651463 0.549691
vt 0.651463 0.388142
vt 0.003112 0.419461
vt 0.000800 0.416514
vt 0.078534 0.639341
vt 0.079940 0.422271
vt -0.000000 0.542319
vt 0.002338 0.541199
vt 0.081139 0.234062
vt 0.005241 0.270123
vt 0.003352 0.413736
vt 0.079813 0.416561
vt 0.651463 0.795171
vt 0.728293 0.675743
vt 0.728308 0.797484
vt 0.803942 0.723990
vt 0.728308 0.578097
vt 0.804788 0.580367
vt 0.808621 0.578097
vt 0.812471 0.699794
vt 0.808621 0.699782
vt 0.809808 0.388142
vt 0.806122 0.570124
vt 0.806122 0.388314
vt 0.775248 0.554618
vt 0.770528 0.464556
vt 0.775248 0.464075
vt 0.806607 0.000000
vt 0.802920 0.216447
vt 0.802920 0.000176
vt 0.761080 0.464305
vt 0.765786 0.557994
vt 0.761080 0.558223
vt 0.770528 0.464242
vt 0.765786 0.556926
vt 0.765786 0.464076
vt 0.582511 0.534213
vt 0.460600 0.540894
vt 0.612662 0.730803
vt 0.802002 0.225730
vt 0.805957 0.376818
vt 0.802002 0.376920
vt 0.773395 -0.000000
vt 0.651463 0.195656
vt 0.651463 0.006294
vt 0.806607 0.000079
vt 0.810565 0.122054
vt 0.806607 0.122133
vt 0.808621 0.578097
vt 0.804788 0.781851
vt 0.804788 0.578300
vt 0.789316 0.516629
vt 0.791363 0.558486
vt 0.789316 0.558451
vt 0.798268 0.279932
vt 0.802002 0.285854
vt 0.764588 0.226631
vt 0.767269 0.268073
vt 0.760691 0.224444
vt 0.798268 0.203999
vt 0.802002 0.196685
vt 0.794760 0.464076
vt 0.761080 0.410774
vt 0.794760 0.388142
vt 0.733083 0.794896
vt 0.735539 0.760664
vt 0.735539 0.794958
vt 0.789316 0.559450
vt 0.786858 0.516629
vt 0.789316 0.516650
vt 0.791435 0.499056
vt 0.793550 0.575238
vt 0.791435 0.575265
vt 0.247617 0.668488
vt 0.247478 0.420323
vt 0.247617 0.136134
vt 0.786584 0.516629
vt 0.465095 0.010381
vt 0.805957 0.225628
vt 0.768072 0.566257
vt 0.786858 0.551697
vt 0.728308 0.760601
vt 0.809808 0.569952
vt 0.806607 0.216271
vt 0.770528 0.557092
vt 0.802920 0.196685
vt 0.808621 0.781648
vt 0.763761 0.452216
vt 0.733083 0.760601
vt 0.617328 0.994395
vt 0.218562 0.966500
vt 0.761079 0.578097
vt 0.779872 0.464076
vt 0.806122 0.388142
vt 0.698372 0.385988
vt 0.794760 0.567203
vt 0.800535 0.388142
vt 0.760691 0.386444
vt 0.728308 0.793345
vt 0.793550 0.465377
vt 0.767700 0.381831
vt 0.651463 0.578097
vt 0.812471 0.578109
vt 0.770528 0.555098
vt 0.765786 0.464076
vt 0.461202 0.730255
vt 0.805957 0.225628
vt 0.810565 0.000000
vt 0.791363 0.516663
vt 0.786858 0.559428
vt 0.793550 0.499029
s 0
f 9/1/1 32/2/1 36/3/1
f 48/4/2 29/5/2 51/6/2
f 18/7/3 64/8/3 63/9/3
f 10/10/4 15/11/4 17/12/4
f 34/13/5 63/14/5 39/15/5
f 37/16/6 8/17/6 34/18/6
f 1/19/7 37/16/7 30/20/7
f 19/21/8 18/7/8 13/22/8
f 1/23/9 18/7/9 12/24/9
f 4/25/10 20/26/10 9/1/10
f 65/27/11 21/28/11 66/29/11
f 17/12/12 6/30/12 9/31/12
f 18/7/13 8/32/13 12/24/13
f 70/33/14 78/34/14 69/35/14
f 22/36/15 19/21/15 2/37/15
f 9/31/16 14/38/16 17/12/16
f 11/39/2 64/40/2 22/41/2
f 11/39/2 38/42/2 42/43/2
f 6/44/17 24/45/17 23/46/17
f 32/47/17 23/46/17 43/48/17
f 23/49/18 25/50/18 26/51/18
f 23/52/19 45/53/19 43/54/19
f 94/55/17 46/56/17 45/57/17
f 40/58/17 24/45/17 15/59/17
f 7/60/2 33/61/2 64/40/2
f 44/62/20 93/63/20 25/64/20
f 2/65/21 38/42/21 22/41/21
f 3/66/22 35/67/22 10/68/22
f 42/43/2 7/60/2 11/39/2
f 10/68/23 31/69/23 5/70/23
f 5/71/24 40/58/24 15/59/24
f 47/72/22 28/73/22 3/66/22
f 1/19/25 52/74/25 47/72/25
f 58/75/26 60/76/26 57/77/26
f 74/78/27 80/79/27 81/80/27
f 1/23/26 49/81/26 13/22/26
f 27/82/2 48/4/2 51/6/2
f 50/83/26 53/84/26 20/85/26
f 50/83/26 55/86/26 54/87/26
f 49/81/26 56/88/26 55/86/26
f 20/85/28 56/88/28 14/38/28
f 54/89/29 57/90/29 53/91/29
f 54/92/30 59/93/30 58/94/30
f 55/95/31 60/96/31 59/97/31
f 53/98/32 60/99/32 56/100/32
f 50/83/26 19/21/26 13/22/26
f 50/83/26 13/22/26 49/81/26
f 16/101/33 64/102/33 21/28/33
f 65/27/34 63/14/34 16/101/34
f 66/29/35 64/102/35 33/103/35
f 65/27/36 33/103/36 39/15/36
f 50/83/37 67/104/37 48/105/37
f 50/83/38 69/106/38 68/107/38
f 4/108/39 69/106/39 20/85/39
f 4/108/40 67/104/40 70/109/40
f 2/37/41 72/110/41 71/111/41
f 50/83/42 72/110/42 19/21/42
f 50/83/43 74/112/43 73/113/43
f 2/37/44 74/112/44 48/105/44
f 75/114/40 77/115/40 76/116/40
f 80/117/45 82/118/45 81/119/45
f 67/120/46 77/121/46 70/122/46
f 72/123/47 82/124/47 79/125/47
f 72/126/48 80/127/48 71/128/48
f 68/129/47 78/130/47 75/131/47
f 74/132/49 82/133/49 73/134/49
f 67/135/50 75/136/50 76/137/50
f 29/5/51 84/138/51 83/139/51
f 4/25/52 85/140/52 84/138/52
f 36/3/53 85/140/53 9/1/53
f 88/141/54 90/142/54 85/143/54
f 89/144/55 92/145/55 91/146/55
f 84/147/56 91/148/56 87/149/56
f 84/150/57 90/151/57 89/152/57
f 97/153/58 99/154/58 96/155/58
f 94/55/17 95/156/17 93/157/17
f 94/55/17 97/158/17 96/159/17
f 26/160/17 98/161/17 97/158/17
f 93/157/17 98/161/17 25/162/17
f 100/163/17 102/164/17 101/165/17
f 95/166/59 99/167/59 100/168/59
f 98/169/18 102/170/18 97/171/18
f 95/172/20 101/173/20 98/174/20
f 3/175/60 49/81/60 47/176/60
f 17/12/61 3/175/61 10/10/61
f 32/2/1 111/1/1 36/3/1
f 29/5/2 130/4/2 51/6/2
f 120/7/62 144/8/62 124/36/62
f 117/11/63 112/10/63 119/12/63
f 143/14/5 34/13/5 39/15/5
f 37/16/64 110/17/64 114/177/64
f 37/16/65 103/19/65 30/20/65
f 120/7/66 121/21/66 115/22/66
f 120/7/67 103/23/67 114/24/67
f 106/25/68 111/1/68 122/26/68
f 123/28/11 145/27/11 146/29/11
f 108/30/69 119/12/69 111/31/69
f 110/32/70 120/7/70 114/24/70
f 158/34/71 150/33/71 149/35/71
f 124/36/72 104/37/72 121/21/72
f 111/31/73 116/38/73 122/85/73
f 113/39/2 144/40/2 109/60/2
f 38/42/2 113/39/2 42/43/2
f 108/44/17 126/45/17 117/59/17
f 32/47/17 125/46/17 108/44/17
f 125/49/74 127/50/74 126/178/74
f 45/53/19 125/52/19 43/54/19
f 45/57/17 167/157/17 168/55/17
f 126/45/17 40/58/17 117/59/17
f 109/60/2 33/61/2 41/179/2
f 127/64/20 167/63/20 44/62/20
f 104/65/21 38/42/21 27/82/21
f 105/66/22 35/67/22 28/73/22
f 109/60/2 42/43/2 113/39/2
f 112/68/75 31/69/75 35/67/75
f 40/58/24 107/71/24 117/59/24
f 129/72/22 28/73/22 52/74/22
f 103/19/65 52/74/65 30/20/65
f 140/76/76 138/75/76 137/77/76
f 154/78/77 160/79/77 151/180/77
f 131/81/76 103/23/76 115/22/76
f 27/82/2 130/4/2 104/65/2
f 133/84/76 132/83/76 122/85/76
f 132/83/76 135/86/76 131/81/76
f 131/81/78 136/88/78 116/38/78
f 136/88/79 122/85/79 116/38/79
f 137/90/80 134/89/80 133/91/80
f 134/92/81 139/93/81 135/181/81
f 135/95/82 140/96/82 136/182/82
f 140/99/83 133/98/83 136/100/83
f 132/83/76 115/22/76 121/21/76
f 132/83/76 131/81/76 115/22/76
f 144/102/84 118/101/84 123/28/84
f 143/14/34 145/27/34 118/101/34
f 146/29/85 144/102/85 123/28/85
f 145/27/86 33/103/86 146/29/86
f 147/104/87 132/83/87 130/105/87
f 132/83/87 149/106/87 122/85/87
f 149/106/88 106/108/88 122/85/88
f 106/108/88 147/104/88 130/105/88
f 104/37/89 152/110/89 121/21/89
f 152/110/90 132/83/90 121/21/90
f 132/83/91 154/112/91 130/105/91
f 154/112/92 104/37/92 130/105/92
f 157/115/93 155/114/93 156/116/93
f 160/117/94 162/118/94 159/183/94
f 157/121/95 147/120/95 150/122/95
f 152/123/96 162/124/96 153/184/96
f 160/127/97 152/126/97 151/128/97
f 148/129/96 158/130/96 149/185/96
f 162/133/98 154/132/98 153/134/98
f 147/135/99 155/136/99 148/186/99
f 29/5/100 163/138/100 106/25/100
f 106/25/101 164/140/101 111/1/101
f 164/140/53 36/3/53 111/1/53
f 166/142/54 88/141/54 164/143/54
f 165/144/102 92/145/102 166/187/102
f 91/148/103 163/147/103 87/149/103
f 163/150/104 166/151/104 164/188/104
f 173/154/105 171/153/105 170/155/105
f 169/156/17 168/55/17 167/157/17
f 168/55/17 171/158/17 128/160/17
f 128/160/17 172/161/17 127/162/17
f 172/161/17 167/157/17 127/162/17
f 174/163/17 176/164/17 173/189/17
f 174/168/106 170/190/106 169/166/106
f 176/170/74 172/169/74 171/171/74
f 175/173/20 169/172/20 172/174/20
f 105/175/107 131/81/107 116/38/107
f 105/175/108 119/12/108 112/10/108
f 9/1/1 6/191/1 32/2/1
f 48/4/2 4/25/2 29/5/2
f 18/7/109 22/36/109 64/8/109
f 10/10/110 5/192/110 15/11/110
f 34/13/5 8/193/5 63/14/5
f 37/16/111 12/177/111 8/17/111
f 1/19/112 12/177/112 37/16/112
f 19/21/113 22/36/113 18/7/113
f 1/23/9 13/22/9 18/7/9
f 65/27/11 16/101/11 21/28/11
f 17/12/114 15/11/114 6/30/114
f 18/7/13 63/9/13 8/32/13
f 70/33/14 77/194/14 78/34/14
f 9/31/115 20/85/115 14/38/115
f 11/39/2 7/60/2 64/40/2
f 11/39/2 22/41/2 38/42/2
f 6/44/17 15/59/17 24/45/17
f 32/47/17 6/44/17 23/46/17
f 23/49/18 24/178/18 25/50/18
f 23/52/19 26/195/19 45/53/19
f 45/57/17 26/160/17 94/55/17
f 94/55/17 93/157/17 46/56/17
f 40/58/17 44/196/17 24/45/17
f 7/60/2 41/179/2 33/61/2
f 25/64/20 24/197/20 44/62/20
f 44/62/20 46/198/20 93/63/20
f 2/65/21 27/82/21 38/42/21
f 3/66/22 28/73/22 35/67/22
f 42/43/2 41/179/2 7/60/2
f 10/68/116 35/67/116 31/69/116
f 5/71/24 31/199/24 40/58/24
f 47/72/22 52/74/22 28/73/22
f 1/19/7 30/20/7 52/74/7
f 58/75/26 59/200/26 60/76/26
f 74/78/27 71/180/27 80/79/27
f 1/23/26 47/176/26 49/81/26
f 27/82/2 2/65/2 48/4/2
f 50/83/26 54/87/26 53/84/26
f 50/83/26 49/81/26 55/86/26
f 49/81/117 14/38/117 56/88/117
f 20/85/26 53/84/26 56/88/26
f 54/89/29 58/201/29 57/90/29
f 54/92/30 55/181/30 59/93/30
f 55/95/31 56/182/31 60/96/31
f 53/98/32 57/202/32 60/99/32
f 16/101/118 63/14/118 64/102/118
f 65/27/34 39/15/34 63/14/34
f 66/29/85 21/28/85 64/102/85
f 65/27/119 66/29/119 33/103/119
f 50/83/40 68/107/40 67/104/40
f 50/83/37 20/85/37 69/106/37
f 4/108/120 70/109/120 69/106/120
f 4/108/39 48/105/39 67/104/39
f 2/37/121 19/21/121 72/110/121
f 50/83/122 73/113/122 72/110/122
f 50/83/123 48/105/123 74/112/123
f 2/37/124 71/111/124 74/112/124
f 75/114/38 78/203/38 77/115/38
f 80/117/125 79/183/125 82/118/125
f 67/120/46 76/204/46 77/121/46
f 72/123/47 73/184/47 82/124/47
f 72/126/48 79/205/48 80/127/48
f 68/129/47 69/185/47 78/130/47
f 74/132/49 81/206/49 82/133/49
f 67/135/50 68/186/50 75/136/50
f 29/5/126 4/25/126 84/138/126
f 4/25/127 9/1/127 85/140/127
f 36/3/128 86/207/128 85/140/128
f 88/141/54 92/208/54 90/142/54
f 89/144/129 90/187/129 92/145/129
f 84/147/130 89/209/130 91/148/130
f 84/150/57 85/188/57 90/151/57
f 97/153/58 102/210/58 99/154/58
f 94/55/17 96/159/17 95/156/17
f 94/55/17 26/160/17 97/158/17
f 26/160/17 25/162/17 98/161/17
f 93/157/17 95/156/17 98/161/17
f 100/163/17 99/189/17 102/164/17
f 95/166/59 96/190/59 99/167/59
f 98/169/18 101/211/18 102/170/18
f 95/172/20 100/212/20 101/173/20
f 3/175/131 14/38/131 49/81/131
f 17/12/132 14/38/132 3/175/132
f 32/2/1 108/191/1 111/1/1
f 29/5/2 106/25/2 130/4/2
f 120/7/133 143/9/133 144/8/133
f 117/11/134 107/192/134 112/10/134
f 143/14/5 110/193/5 34/13/5
f 37/16/6 34/18/6 110/17/6
f 37/16/135 114/177/135 103/19/135
f 120/7/136 124/36/136 121/21/136
f 120/7/67 115/22/67 103/23/67
f 123/28/11 118/101/11 145/27/11
f 108/30/137 117/11/137 119/12/137
f 110/32/70 143/9/70 120/7/70
f 158/34/71 157/194/71 150/33/71
f 111/31/138 119/12/138 116/38/138
f 113/39/2 124/41/2 144/40/2
f 38/42/2 124/41/2 113/39/2
f 108/44/17 125/46/17 126/45/17
f 32/47/17 43/48/17 125/46/17
f 125/49/74 128/51/74 127/50/74
f 45/53/19 128/195/19 125/52/19
f 168/55/17 128/160/17 45/57/17
f 45/57/17 46/56/17 167/157/17
f 126/45/17 44/196/17 40/58/17
f 109/60/2 144/40/2 33/61/2
f 44/62/20 126/197/20 127/64/20
f 167/63/20 46/198/20 44/62/20
f 104/65/21 124/41/21 38/42/21
f 105/66/22 112/68/22 35/67/22
f 109/60/2 41/179/2 42/43/2
f 112/68/23 107/70/23 31/69/23
f 40/58/24 31/199/24 107/71/24
f 129/72/22 105/66/22 28/73/22
f 103/19/25 129/72/25 52/74/25
f 140/76/76 139/200/76 138/75/76
f 154/78/77 161/80/77 160/79/77
f 131/81/76 129/176/76 103/23/76
f 27/82/2 51/6/2 130/4/2
f 133/84/76 134/87/76 132/83/76
f 132/83/76 134/87/76 135/86/76
f 131/81/76 135/86/76 136/88/76
f 136/88/76 133/84/76 122/85/76
f 137/90/139 138/201/139 134/89/139
f 134/92/81 138/94/81 139/93/81
f 135/95/82 139/97/82 140/96/82
f 140/99/83 137/202/83 133/98/83
f 144/102/140 143/14/140 118/101/140
f 143/14/34 39/15/34 145/27/34
f 146/29/35 33/103/35 144/102/35
f 145/27/141 39/15/141 33/103/141
f 147/104/93 148/107/93 132/83/93
f 132/83/142 148/107/142 149/106/142
f 149/106/143 150/109/143 106/108/143
f 106/108/93 150/109/93 147/104/93
f 104/37/144 151/111/144 152/110/144
f 152/110/145 153/113/145 132/83/145
f 132/83/146 153/113/146 154/112/146
f 154/112/147 151/111/147 104/37/147
f 157/115/142 158/203/142 155/114/142
f 160/117/148 161/119/148 162/118/148
f 157/121/95 156/204/95 147/120/95
f 152/123/96 159/125/96 162/124/96
f 160/127/97 159/205/97 152/126/97
f 148/129/96 155/131/96 158/130/96
f 162/133/98 161/206/98 154/132/98
f 147/135/99 156/137/99 155/136/99
f 29/5/149 83/139/149 163/138/149
f 106/25/150 163/138/150 164/140/150
f 164/140/151 86/207/151 36/3/151
f 166/142/54 92/208/54 88/141/54
f 165/144/152 91/146/152 92/145/152
f 91/148/153 165/209/153 163/147/153
f 163/150/104 165/152/104 166/151/104
f 173/154/105 176/210/105 171/153/105
f 169/156/17 170/159/17 168/55/17
f 168/55/17 170/159/17 171/158/17
f 128/160/17 171/158/17 172/161/17
f 172/161/17 169/156/17 167/157/17
f 174/163/17 175/165/17 176/164/17
f 174/168/106 173/167/106 170/190/106
f 176/170/74 175/211/74 172/169/74
f 175/173/20 174/212/20 169/172/20
f 105/175/154 129/176/154 131/81/154
f 105/175/155 116/38/155 119/12/155
l 62 61
l 3 62
l 142 141
l 105 142
