# Blender 4.1.1
# www.blender.org
o Model
v 0.541840 -1.035723 -1.554984
v -1.458160 -1.162737 -1.681998
v -1.458160 -1.162737 1.889325
v 0.541840 0.551600 -1.554984
v 0.541840 0.551600 1.762311
v -1.458160 0.678614 -1.681998
v -1.458160 0.678614 1.889325
v 0.541840 -1.162737 1.889325
v 0.541840 -1.162737 -1.681998
v 0.541840 0.678614 1.889325
v 0.541840 0.678614 -1.681998
v 0.350573 -1.035723 -1.554984
v 0.350573 0.551600 1.762311
v 0.350573 0.551600 -1.554984
v 0.541840 -1.035723 -1.554984
v 0.541840 -1.035723 1.762311
v 0.383191 0.837263 -1.523349
v 0.541840 0.551600 -1.554984
v 0.383191 0.837263 1.730676
v 0.541840 0.551600 1.762311
v -1.299511 0.837263 -1.523349
v -1.458160 0.678614 -1.681998
v -1.299511 0.837263 1.730676
v -1.458160 0.678614 1.889325
v 0.541840 -1.162737 1.889325
v 0.541840 -1.162737 -1.681998
v 0.541840 0.678614 1.889325
v 0.541840 0.678614 -1.681998
v 0.350573 -1.035723 1.762311
v 0.350573 -1.035723 -1.554984
v 0.350573 0.551600 1.762311
v 0.350573 0.551600 -1.554984
v -1.458160 -1.162737 -1.681998
v -1.458160 -1.162737 1.889325
v 0.541840 -1.162737 1.889325
v 0.541840 -1.162737 -1.681998
v -1.458160 -1.162737 -1.086777
v -1.458160 -1.162737 -0.491557
v -1.458160 -1.162737 0.103664
v -1.458160 -1.162737 0.698884
v -1.458160 -1.162737 1.294105
v 0.541840 -1.162737 1.294105
v 0.541840 -1.162737 0.698884
v 0.541840 -1.162737 0.103664
v 0.541840 -1.162737 -0.491557
v 0.541840 -1.162737 -1.086777
v 0.208506 -1.162737 -1.681998
v -0.124827 -1.162737 -1.681998
v -0.458160 -1.162737 -1.681998
v -0.791494 -1.162737 -1.681998
v -1.124827 -1.162737 -1.681998
v -1.124827 -1.162737 1.889325
v -0.791494 -1.162737 1.889325
v -0.458160 -1.162737 1.889325
v -0.124827 -1.162737 1.889325
v 0.208506 -1.162737 1.889325
v 0.208506 -1.162737 -1.086777
v -0.124827 -1.162737 -1.086777
v -0.458160 -1.162737 -1.086777
v -0.791494 -1.162737 -1.086777
v -1.124827 -1.162737 -1.086777
v 0.208506 -1.162737 1.294105
v -0.124827 -1.162737 1.294105
v -0.458160 -1.162737 1.294105
v -0.791494 -1.162737 1.294105
v -1.124827 -1.162737 1.294105
v -1.458160 -1.162737 -1.384387
v 0.541840 -1.162737 -1.384387
v -1.124827 -1.162737 -1.384387
v 0.208506 -1.162737 -1.384387
v -1.458160 -1.162737 1.591715
v 0.541840 -1.162737 1.591715
v -1.124827 -1.162737 1.591715
v 0.208506 -1.162737 1.591715
v -1.291494 -1.162737 -1.681998
v -1.291494 -1.162737 -1.086777
v -1.291494 -1.162737 -0.491557
v -1.291494 -1.162737 0.103664
v -1.291494 -1.162737 0.698884
v -1.291494 -1.162737 1.294105
v -1.291494 -1.162737 1.889325
v -1.291494 -1.162737 -1.384387
v -1.291494 -1.162737 1.591715
v 0.375173 -1.162737 1.889325
v 0.375173 -1.162737 -1.681998
v 0.375173 -1.162737 -1.086777
v 0.375173 -1.162737 -0.491557
v 0.375173 -1.162737 0.103664
v 0.375173 -1.162737 0.698884
v 0.375173 -1.162737 1.294105
v 0.375173 -1.162737 -1.384387
v 0.375173 -1.162737 1.591715
v 0.375173 -1.614373 -1.086777
v 0.208506 -1.614373 -1.086777
v 0.375173 -1.614373 1.294105
v 0.208506 -1.614373 1.294105
v -1.124827 -1.614373 -1.384387
v -1.124827 -1.614373 -1.086777
v 0.208506 -1.614373 -1.384387
v 0.375173 -1.614373 -1.384387
v -1.124827 -1.614373 1.294105
v -1.124827 -1.614373 1.591715
v 0.208506 -1.614373 1.591715
v 0.375173 -1.614373 1.591715
v -1.291494 -1.614373 -1.086777
v -1.291494 -1.614373 1.294105
v -1.291494 -1.614373 -1.384387
v -1.291494 -1.614373 1.591715
vn -0.0000 -0.0000 1.0000
vn -1.0000 -0.0000 -0.0000
vn -0.0000 -0.0000 -1.0000
vn -0.0000 -1.0000 -0.0000
vn -0.0000 1.0000 -0.0000
vn -0.0000 0.7071 0.7071
vn 0.7071 0.7071 -0.0000
vn -0.7071 0.7071 -0.0000
vn -0.0000 0.7071 -0.7071
vn 1.0000 -0.0000 -0.0000
s 0
f 10//1 3//1 8//1
f 7//2 2//2 3//2
f 6//3 9//3 2//3
f 5//4 14//4 4//4
f 4//1 12//1 1//1
f 21//5 19//5 17//5
f 16//3 31//3 20//3
f 23//6 27//6 19//6
f 19//7 28//7 17//7
f 23//8 22//8 24//8
f 17//9 22//9 21//9
f 16//10 26//10 15//10
f 18//10 27//10 20//10
f 15//10 28//10 18//10
f 20//10 25//10 16//10
f 32//10 29//10 30//10
f 15//5 29//5 16//5
f 37//4 67//4 82//4
f 73//4 81//4 83//4
f 70//2 94//2 57//2
f 74//4 55//4 63//4
f 51//4 82//4 75//4
f 58//4 57//4 87//4
f 80//2 108//2 83//2
f 76//1 98//1 61//1
f 85//4 70//4 47//4
f 92//4 56//4 74//4
f 91//3 99//3 70//3
f 97//4 105//4 107//4
f 101//4 108//4 106//4
f 95//4 103//4 96//4
f 100//4 94//4 99//4
f 86//10 100//10 91//10
f 82//2 105//2 76//2
f 92//10 95//10 90//10
f 73//10 101//10 66//10
f 66//3 106//3 80//3
f 90//3 96//3 62//3
f 61//10 97//10 69//10
f 74//1 104//1 92//1
f 69//3 107//3 82//3
f 57//1 93//1 86//1
f 62//2 103//2 74//2
f 83//1 102//1 73//1
f 70//4 58//4 48//4
f 68//4 86//4 91//4
f 10//1 7//1 3//1
f 7//2 6//2 2//2
f 6//3 11//3 9//3
f 5//4 13//4 14//4
f 4//1 14//1 12//1
f 21//5 23//5 19//5
f 16//3 29//3 31//3
f 23//6 24//6 27//6
f 19//7 27//7 28//7
f 23//8 21//8 22//8
f 17//9 28//9 22//9
f 16//10 25//10 26//10
f 18//10 28//10 27//10
f 15//10 26//10 28//10
f 20//10 27//10 25//10
f 32//10 31//10 29//10
f 15//5 30//5 29//5
f 83//4 81//4 34//4
f 83//4 34//4 71//4
f 80//4 83//4 41//4
f 83//4 71//4 41//4
f 79//4 80//4 40//4
f 80//4 41//4 40//4
f 78//4 79//4 40//4
f 78//4 40//4 39//4
f 77//4 78//4 39//4
f 77//4 39//4 38//4
f 76//4 77//4 38//4
f 76//4 38//4 37//4
f 33//4 75//4 82//4
f 82//4 76//4 37//4
f 67//4 33//4 82//4
f 73//4 52//4 81//4
f 70//2 99//2 94//2
f 53//4 52//4 73//4
f 73//4 66//4 65//4
f 73//4 65//4 53//4
f 65//4 64//4 54//4
f 54//4 53//4 65//4
f 74//4 56//4 55//4
f 55//4 54//4 64//4
f 64//4 63//4 55//4
f 63//4 62//4 74//4
f 51//4 69//4 82//4
f 66//4 80//4 79//4
f 66//4 79//4 65//4
f 79//4 78//4 89//4
f 65//4 79//4 64//4
f 64//4 79//4 89//4
f 77//4 76//4 61//4
f 78//4 77//4 88//4
f 89//4 78//4 88//4
f 77//4 61//4 60//4
f 77//4 60//4 59//4
f 63//4 64//4 89//4
f 89//4 90//4 62//4
f 62//4 63//4 89//4
f 77//4 59//4 87//4
f 59//4 58//4 87//4
f 77//4 87//4 88//4
f 57//4 86//4 87//4
f 80//2 106//2 108//2
f 76//1 105//1 98//1
f 85//4 91//4 70//4
f 92//4 84//4 56//4
f 91//3 100//3 99//3
f 97//4 98//4 105//4
f 101//4 102//4 108//4
f 95//4 104//4 103//4
f 100//4 93//4 94//4
f 86//10 93//10 100//10
f 82//2 107//2 105//2
f 92//10 104//10 95//10
f 73//10 102//10 101//10
f 66//3 101//3 106//3
f 90//3 95//3 96//3
f 61//10 98//10 97//10
f 74//1 103//1 104//1
f 69//3 97//3 107//3
f 57//1 94//1 93//1
f 62//2 96//2 103//2
f 83//1 108//1 102//1
f 60//4 61//4 69//4
f 69//4 51//4 50//4
f 69//4 50//4 60//4
f 50//4 49//4 60//4
f 59//4 60//4 49//4
f 70//4 57//4 58//4
f 58//4 59//4 49//4
f 49//4 48//4 58//4
f 48//4 47//4 70//4
f 72//4 35//4 84//4
f 72//4 84//4 92//4
f 42//4 72//4 92//4
f 42//4 92//4 90//4
f 43//4 42//4 89//4
f 42//4 90//4 89//4
f 44//4 43//4 89//4
f 44//4 89//4 88//4
f 45//4 44//4 88//4
f 45//4 88//4 87//4
f 46//4 45//4 87//4
f 46//4 87//4 86//4
f 85//4 36//4 68//4
f 68//4 46//4 86//4
f 91//4 85//4 68//4